<?xml version="1.0" encoding="UTF-8" standalone="no"?>
<svg
   xmlns:dc="http://purl.org/dc/elements/1.1/"
   xmlns:cc="http://creativecommons.org/ns#"
   xmlns:rdf="http://www.w3.org/1999/02/22-rdf-syntax-ns#"
   xmlns:svg="http://www.w3.org/2000/svg"
   xmlns="http://www.w3.org/2000/svg"
   xmlns:sodipodi="http://sodipodi.sourceforge.net/DTD/sodipodi-0.dtd"
   xmlns:inkscape="http://www.inkscape.org/namespaces/inkscape"
   height="100%"
   width="100%"
   sodipodi:docname="wsucon-numerals-year-dark.svg"
   inkscape:version="0.91 r13725"
   version="1.1"
   viewBox="0 0 864 432"
   data-name="Layer 1"
   id="Layer_1">
  <sodipodi:namedview
     inkscape:current-layer="Layer_1"
     inkscape:window-maximized="1"
     inkscape:window-y="27"
     inkscape:window-x="53"
     inkscape:cy="53.472384"
     inkscape:cx="402.62452"
     inkscape:zoom="0.58270838"
     inkscape:object-paths="true"
     inkscape:snap-bbox-midpoints="true"
     inkscape:snap-bbox-edge-midpoints="true"
     inkscape:snap-center="true"
     inkscape:snap-object-midpoints="true"
     inkscape:object-nodes="true"
     inkscape:snap-intersection-paths="true"
     inkscape:bbox-paths="true"
     inkscape:bbox-nodes="true"
     inkscape:snap-bbox="true"
     showgrid="false"
     id="namedview57"
     inkscape:window-height="1031"
     inkscape:window-width="1867"
     inkscape:pageshadow="2"
     inkscape:pageopacity="0"
     guidetolerance="10"
     gridtolerance="10"
     objecttolerance="10"
     borderopacity="1"
     bordercolor="#666666"
     pagecolor="#ffffff" />
  <metadata
     id="metadata59">
    <rdf:RDF>
      <cc:Work
         rdf:about="">
        <dc:format>image/svg+xml</dc:format>
        <dc:type
           rdf:resource="http://purl.org/dc/dcmitype/StillImage" />
        <dc:title>WSUCon-Final</dc:title>
      </cc:Work>
    </rdf:RDF>
  </metadata>
  <defs
     id="defs3">
    <style
       id="style5">.cls-1{fill:#c3002f;}.cls-2{fill:#9d162e;}.cls-3{fill:#262729;}</style>
  </defs>
  <title
     id="title7">WSUCon-Final</title>
  <polygon
     style="fill:#c3002f"
     id="polygon19"
     points="282.56,239.48 282.65,273.7 282.65,273.7 157.29,199.99 157.19,165.68 "
     class="cls-1" />
  <polygon
     style="fill:#c3002f"
     id="polygon21"
     points="12.41,178.12 40.41,194.24 40.5,243.63 77.64,265.21 77.64,265.21 50.49,280.86 12.51,258.99 "
     class="cls-1" />
  <polygon
     style="fill:#c3002f"
     id="polygon23"
     points="291.23,178.97 317.05,193.76 317.15,241.46 353.72,262.67 353.72,262.67 353.72,294.15 291.42,258.05 "
     class="cls-1" />
  <polygon
     style="fill:#c3002f"
     id="polygon25"
     points="458.25,195.93 458.35,241.65 494.63,262.67 494.73,294.15 494.73,294.15 432.61,258.24 432.42,181.04 "
     class="cls-1" />
  <polygon
     style="fill:#c3002f"
     id="polygon27"
     points="574.19,181.42 599.92,196.41 600.01,241.37 636.49,262.57 636.49,262.57 636.49,294.06 574.28,258.05 "
     class="cls-1" />
  <polygon
     style="fill:#c3002f"
     id="polygon29"
     points="741.21,196.12 741.4,272.85 741.4,272.85 716.23,258.24 716.14,181.61 "
     class="cls-1" />
  <polygon
     style="fill:#9d162e"
     id="polygon31"
     points="851.49,179.72 851.59,256.35 851.59,256.35 823.68,272.47 823.59,195.75 "
     class="cls-2" />
  <polygon
     style="fill:#9d162e"
     id="polygon33"
     points="682.3,241.27 682.21,196.12 707.37,181.61 707.47,258.24 707.47,258.24 645.35,294.43 645.26,262.95 "
     class="cls-2" />
  <polygon
     style="fill:#9d162e"
     id="polygon35"
     points="503.4,263.23 541.76,240.8 565.51,255.41 565.51,255.41 565.51,258.61 503.49,294.71 "
     class="cls-2" />
  <polygon
     style="fill:#9d162e"
     id="polygon37"
     points="399.43,241.27 399.34,193.58 423.66,179.53 423.75,258.71 423.75,258.71 362.49,294.43 362.49,262.95 "
     class="cls-2" />
  <polygon
     style="fill:#9d162e"
     id="polygon39"
     points="122.79,243.53 122.7,194.05 148.43,179.16 148.62,260.12 148.62,260.12 113.18,280.76 85.84,265.21 "
     class="cls-2" />
  <polygon
     style="fill:#262729"
     id="polygon41"
     points="743.94,187.92 716.23,171.71 782.78,133.25 849.42,171.52 849.42,171.52 821.61,187.64 783.06,165.11 "
     class="cls-3" />
  <polygon
     style="fill:#262729"
     id="polygon43"
     points="601.9,188.11 574.09,171.99 640.64,133.44 707.28,171.71 707.28,171.71 679.47,187.92 641.01,165.3 "
     class="cls-3" />
  <polygon
     style="fill:#262729"
     id="polygon45"
     points="498.97,165.58 460.32,188.02 432.42,171.9 498.59,133.63 565.33,171.99 565.33,171.99 565.33,174.54 539.69,189.43 "
     class="cls-3" />
  <path
     style="fill:#262729"
     inkscape:connector-curvature="0"
     id="path47"
     d="m 465.13,317.43 -50.8,29.88"
     class="cls-3" />
  <polygon
     style="fill:#262729"
     id="polygon49"
     points="81.6,222.89 112.04,240.23 112.04,240.23 81.69,258.24 51.25,240.52 "
     class="cls-3" />
  <polygon
     style="fill:#262729"
     id="polygon51"
     points="157.38,259.09 180,246.46 220.25,270.02 240.23,258.24 267.29,274.17 267.29,274.17 220.25,301.03 157.38,264.65 "
     class="cls-3" />
  <polygon
     style="fill:#262729"
     id="polygon53"
     points="197.63,180 170.96,164.36 219.97,135.8 275.58,167.37 275.58,167.37 248.62,183.49 220.16,166.81 "
     class="cls-3" />
  <path
     style="fill:#262729"
     inkscape:connector-curvature="0"
     id="path55"
     d="m 831.73359,85.073851 -95.77,-55.4"
     class="cls-3" />
  <path
     id="rect3387"
     d="M 411.21484 14.712891 C 410.85385 14.706492 410.50192 14.709656 410.16016 14.722656 C 408.3374 14.791993 406.80124 15.140002 405.68164 15.792969 L 235.02539 115.32227 C 230.54699 117.93414 234.5043 124.40614 243.9043 129.84375 L 341.30859 186.18945 C 350.70858 191.62706 361.8673 193.89897 366.3457 191.28711 L 537.00195 91.757812 C 541.48035 89.145949 537.52305 82.673938 528.12305 77.236328 L 430.71875 20.890625 C 424.10938 17.067304 416.62971 14.80887 411.21484 14.712891 z M 408.41406 26.101562 C 408.84245 26.097258 409.29588 26.121062 409.77344 26.169922 C 411.67075 26.318337 413.39533 26.839712 414.94531 27.736328 L 516.39844 86.423828 C 517.94842 87.320444 518.87726 88.334306 519.1875 89.462891 C 519.48481 90.544451 519.07262 91.413173 517.94922 92.068359 C 516.82581 92.723546 515.31528 92.97654 513.41797 92.828125 C 511.50773 92.632686 509.7785 92.086069 508.22852 91.189453 L 406.77539 32.501953 C 405.22541 31.605337 404.30122 30.616717 404.00391 29.535156 C 403.69367 28.406572 404.09925 27.514562 405.22266 26.859375 C 406.06521 26.367985 407.12891 26.114475 408.41406 26.101562 z M 387.98828 38.015625 C 388.41666 38.011321 388.8701 38.033171 389.34766 38.082031 C 391.24497 38.230447 392.96955 38.751821 394.51953 39.648438 C 395.55285 40.246183 396.43982 40.957795 397.17969 41.78125 L 469.13281 116.44531 C 469.68006 116.99916 470.01917 117.51218 470.14844 117.98242 C 470.45867 119.11101 470.05114 120.00302 468.92773 120.6582 C 467.80433 121.31339 466.28719 121.5431 464.37695 121.34766 C 463.53279 121.29435 462.6335 121.10857 461.67773 120.79297 L 332.83789 79.304688 C 331.41718 78.878315 330.19153 78.367276 329.1582 77.769531 C 327.60822 76.872915 326.68403 75.884295 326.38672 74.802734 C 326.07648 73.67415 326.48206 72.78214 327.60547 72.126953 C 329.40973 71.074684 331.73278 70.973425 334.57422 71.826172 L 447.7207 108.39062 L 384.31055 42.820312 C 382.83082 41.1734 382.99262 39.823754 384.79688 38.771484 C 385.63943 38.280094 386.70313 38.028538 387.98828 38.015625 z M 314.45703 80.900391 C 314.88541 80.896086 315.33885 80.917937 315.81641 80.966797 C 317.71372 81.115212 319.43635 81.63854 320.98633 82.535156 C 322.20753 83.241582 323.05088 84.00481 323.51367 84.826172 L 344.24219 127.90039 L 418.04883 139.69141 C 419.66087 139.95163 421.12432 140.46189 422.43945 141.22266 C 423.98943 142.11927 424.92023 143.13118 425.23047 144.25977 C 425.52778 145.34133 425.11559 146.21005 423.99219 146.86523 C 422.69857 147.61969 421.00241 147.84514 418.9043 147.54102 L 348.26172 136.27734 L 367.94141 177.26172 C 368.47356 178.47913 368.0944 179.46625 366.80078 180.2207 C 365.67738 180.87589 364.16684 181.12888 362.26953 180.98047 C 360.35929 180.78503 358.62811 180.23841 357.07812 179.3418 C 355.76299 178.58103 354.87842 177.73212 354.42383 176.79688 L 333.82422 133.97656 L 259.58008 122.11133 C 258.1641 121.84588 256.8462 121.36072 255.625 120.6543 C 254.07502 119.75768 253.15083 118.76906 252.85352 117.6875 C 252.54328 116.55892 252.95081 115.66691 254.07422 115.01172 C 255.36784 114.25726 257.2897 114.06377 259.83984 114.43164 L 329.80273 125.59961 L 310.29102 85.007812 C 309.64726 83.528109 309.97201 82.410707 311.26562 81.65625 C 312.10818 81.16486 313.17188 80.913304 314.45703 80.900391 z "
     style="color:#000000;font-style:normal;font-variant:normal;font-weight:normal;font-stretch:normal;font-size:medium;line-height:normal;font-family:sans-serif;text-indent:0;text-align:start;text-decoration:none;text-decoration-line:none;text-decoration-style:solid;text-decoration-color:#000000;letter-spacing:normal;word-spacing:normal;text-transform:none;direction:ltr;block-progression:tb;writing-mode:lr-tb;baseline-shift:baseline;text-anchor:start;white-space:normal;clip-rule:nonzero;display:inline;overflow:visible;visibility:visible;opacity:0.9;isolation:auto;mix-blend-mode:normal;color-interpolation:sRGB;color-interpolation-filters:linearRGB;solid-color:#000000;solid-opacity:1;fill:#262729;fill-opacity:1;fill-rule:nonzero;stroke:#262729;stroke-width:0.35433072;stroke-linecap:butt;stroke-linejoin:miter;stroke-miterlimit:4;stroke-dasharray:none;stroke-dashoffset:0;stroke-opacity:0.99611574;color-rendering:auto;image-rendering:auto;shape-rendering:auto;text-rendering:auto;enable-background:accumulate" />
  <path
     style="fill:#262729"
     inkscape:connector-curvature="0"
     id="path55-6"
     d="M 573.78085,73.384065 457.67073,6.2179293"
     class="cls-3" />
  <path
     inkscape:connector-curvature="0"
     id="path3467"
     d="M 362.71487,182.6023 249.98894,117.39382 409.30836,24.476423 522.03429,89.684904 Z"
     style="fill:none;fill-rule:evenodd;stroke:none;stroke-width:0.85000002px;stroke-linecap:butt;stroke-linejoin:miter;stroke-opacity:1" />
  <g
     style="font-style:normal;font-weight:normal;font-size:40px;line-height:125%;font-family:sans-serif;letter-spacing:0px;word-spacing:0px;fill:none;fill-opacity:0;stroke:#000000;stroke-width:1px;stroke-linecap:butt;stroke-linejoin:miter;stroke-opacity:1"
     id="flowRoot3534"
     transform="translate(115.2809,16.382022)" />
  <path
     inkscape:connector-curvature="0"
     id="path4496"
     d="m 571.91777,160.55939 -56.19198,-32.50533 92.94632,-54.669995 56.19198,32.505325 -92.94632,54.67"
     style="fill:none;fill-rule:evenodd;stroke:none;stroke-width:1px;stroke-linecap:butt;stroke-linejoin:miter;stroke-opacity:1" />
  <flowRoot
     style="fill:black;stroke:none;stroke-opacity:1;stroke-width:1px;stroke-linejoin:miter;stroke-linecap:butt;fill-opacity:1;font-family:sans-serif;font-style:normal;font-weight:normal;font-size:40px;line-height:125%;letter-spacing:0px;word-spacing:0px"
     id="flowRoot4498"
     xml:space="preserve"><flowRegion
       id="flowRegion4500"><rect
         y="344.62921"
         x="101.93258"
         height="72.80899"
         width="274.24719"
         id="rect4502" /></flowRegion><flowPara
       id="flowPara4504" /></flowRoot>  <g
     id="text4506"
     style="font-style:normal;font-weight:normal;font-size:40px;line-height:125%;font-family:sans-serif;letter-spacing:0px;word-spacing:0px;fill:#9d162e;fill-opacity:1;stroke:none;stroke-width:1px;stroke-linecap:butt;stroke-linejoin:miter;stroke-opacity:1"
     transform="translate(2.01089,-4.225608)">
    <path
       id="path4511"
       style="font-style:normal;font-variant:normal;font-weight:normal;font-stretch:normal;font-size:40px;line-height:125%;font-family:Comfortaa;-inkscape-font-specification:'Comfortaa, Normal';text-align:start;writing-mode:lr-tb;text-anchor:start;fill:#9d162e;fill-opacity:1"
       d="m 586.04109,148.73937 c 0.54383,-0.31988 1.28622,-0.42877 2.22718,-0.32666 0.93402,0.0789 1.78735,0.34178 2.55999,0.78873 0.77264,0.44694 1.24216,0.94926 1.40856,1.50695 0.15947,0.53446 -0.0327,0.96163 -0.57655,1.2815 0,0 -19.77581,11.63192 -19.77581,11.63192 -0.54383,0.31988 -1.28276,0.44038 -2.21678,0.36151 -0.94096,-0.10211 -1.79776,-0.37664 -2.57039,-0.82358 -0.77264,-0.44695 -1.2504,-0.94442 -1.43328,-1.49242 0,0 -9.66707,-25.2895 -9.66707,-25.2895 -0.65175,-2.18429 -2.53461,-4.1771 -5.64857,-5.97843 -3.11397,-1.80134 -6.53423,-2.87621 -10.26077,-3.22463 -3.73347,-0.37165 -6.69611,0.0871 -8.88793,1.37634 -2.19182,1.2892 -2.96186,3.02595 -2.31013,5.21023 0.64482,2.16106 2.52421,4.14226 5.63818,5.94359 0.77264,0.44695 1.24216,0.94927 1.40856,1.50696 0.15947,0.53445 -0.0327,0.96162 -0.57655,1.2815 -0.54383,0.31987 -1.28276,0.44038 -2.21678,0.36151 -0.94096,-0.10211 -1.79776,-0.37664 -2.57039,-0.82358 -4.65925,-2.69523 -7.47421,-5.66945 -8.4449,-8.92266 -0.97761,-3.27642 0.17333,-5.87912 3.45282,-7.80808 3.27949,-1.92896 7.72346,-2.61713 13.33191,-2.0645 5.60151,0.52939 10.7319,2.14171 15.39114,4.83694 4.65925,2.69523 7.47768,5.68106 8.45529,8.95748 0,0 7.98073,20.70907 7.98073,20.70907 0,0 15.30154,-9.00019 15.30154,-9.00019 0,0 0,0 0,0"
       inkscape:connector-curvature="0" />
    <path
       id="path4513"
       style="font-style:normal;font-variant:normal;font-weight:normal;font-stretch:normal;font-size:40px;line-height:125%;font-family:Comfortaa;-inkscape-font-specification:'Comfortaa, Normal';text-align:start;writing-mode:lr-tb;text-anchor:start;fill:#9d162e;fill-opacity:1"
       d="m 569.49707,132.24768 c -11.23837,-6.50106 -17.61075,-12.08107 -19.11712,-16.74006 -0.8112,-2.71874 0.15102,-4.88265 2.88667,-6.49173 2.73565,-1.60908 6.43723,-2.18836 11.10472,-1.73785 7.99943,0.83984 17.61833,4.51029 28.85671,11.01134 11.23838,6.50106 17.61075,12.08107 19.11712,16.74004 0.81121,2.71875 -0.15101,4.88267 -2.88666,6.49175 -2.73565,1.60908 -6.43723,2.18836 -11.10473,1.73783 -7.99943,-0.83982 -17.61833,-4.51026 -28.85671,-11.01132 0,0 0,0 0,0 m -10.61126,-19.98126 c -1.63151,0.95963 -2.20112,2.26437 -1.70884,3.9142 1.48486,3.74291 6.90995,8.32313 16.27527,13.74068 9.36531,5.41754 17.26238,8.54378 23.6912,9.3787 2.83242,0.27339 5.06438,-0.0697 6.69588,-1.02936 1.63151,-0.95963 2.20112,-2.26437 1.70885,-3.91421 -1.48487,-3.7429 -6.90997,-8.32312 -16.27528,-13.74066 -9.36532,-5.41755 -17.26238,-8.54379 -23.6912,-9.37871 -2.83241,-0.2734 -5.06437,0.0697 -6.69588,1.02936 0,0 0,0 0,0"
       inkscape:connector-curvature="0" />
    <path
       id="path4515"
       style="font-style:normal;font-variant:normal;font-weight:normal;font-stretch:normal;font-size:40px;line-height:125%;font-family:Comfortaa;-inkscape-font-specification:'Comfortaa, Normal';text-align:start;writing-mode:lr-tb;text-anchor:start;fill:#9d162e;fill-opacity:1"
       d="m 632.35747,124.77442 c 0.77264,0.44694 1.24216,0.94926 1.40856,1.50695 0.15947,0.53446 -0.0327,0.96162 -0.57655,1.2815 -0.54383,0.31988 -1.28276,0.44038 -2.21678,0.36151 -0.94096,-0.10211 -1.79776,-0.37663 -2.57039,-0.82358 0,0 -46.67439,-26.99969 -46.67439,-26.99969 0,0 -1.6787,2.74922 -1.6787,2.74922 -0.10671,0.22666 -0.29191,0.41754 -0.55559,0.57263 -0.54383,0.31988 -1.28276,0.44038 -2.21678,0.36151 -0.94096,-0.10211 -1.79776,-0.37663 -2.57039,-0.82358 -0.77264,-0.44695 -1.24216,-0.94927 -1.40856,-1.50696 -0.0832,-0.27885 -0.0715,-0.53161 0.0353,-0.75827 0,0 3.12314,-5.114839 3.12314,-5.114839 0.0971,-0.193759 0.27751,-0.368185 0.54119,-0.523277 0.54384,-0.319877 1.28623,-0.428762 2.22719,-0.326655 0.93402,0.07887 1.78735,0.341781 2.55999,0.788727 0,0 50.5727,29.254744 50.5727,29.254744 0,0 9e-5,6e-5 9e-5,6e-5"
       inkscape:connector-curvature="0" />
    <path
       id="path4517"
       style="font-style:normal;font-variant:normal;font-weight:normal;font-stretch:normal;font-size:40px;line-height:125%;font-family:Comfortaa;-inkscape-font-specification:'Comfortaa, Normal';text-align:start;writing-mode:lr-tb;text-anchor:start;fill:#9d162e;fill-opacity:1"
       d="m 600.41501,87.839401 c -1.6315,0.959631 -2.20111,2.264365 -1.70884,3.914202 0.48533,1.626595 1.88696,3.110316 4.20488,4.451163 2.31791,1.34084 4.88484,2.152803 7.70077,2.435889 2.809,0.25985 5.02926,-0.09004 6.66076,-1.049672 1.63151,-0.959636 2.20459,-2.252752 1.71924,-3.879349 -0.49228,-1.649838 -1.89737,-3.145176 -4.21528,-4.486016 -2.31792,-1.340847 -4.88138,-2.141192 -7.69037,-2.401035 -2.81593,-0.283091 -5.03965,0.05518 -6.67116,1.014818 0,0 0,0 0,0 m 22.47676,13.002109 c -2.19182,1.2892 -2.96186,3.02594 -2.31012,5.21023 0.64481,2.16106 2.5242,4.14225 5.63817,5.94359 3.11396,1.80133 6.53768,2.88782 10.27116,3.25947 3.72655,0.34842 6.68573,-0.12198 8.87754,-1.41118 2.19183,-1.2892 2.96533,-3.01434 2.32052,-5.17539 -0.65175,-2.18429 -2.53461,-4.1771 -5.64857,-5.97843 -3.11397,-1.80134 -6.53423,-2.876214 -10.26077,-3.224633 -3.73346,-0.371643 -6.69611,0.08714 -8.88793,1.376343 0,0 0,0 0,0 m -9.37977,1.87048 c -0.55157,-0.0307 -1.12656,-0.0749 -1.72496,-0.13264 -4.6675,-0.45053 -8.94455,-1.79992 -12.83115,-4.048201 -3.88661,-2.248283 -6.23552,-4.731799 -7.04674,-7.450547 -0.8112,-2.718742 0.15103,-4.882651 2.88667,-6.491729 2.73566,-1.609082 6.43723,-2.188367 11.10472,-1.737852 4.6675,0.450526 8.94455,1.799931 12.83116,4.048214 3.8866,2.248276 6.23551,4.731786 7.04673,7.450529 0.104,0.348559 0.18459,0.683574 0.24177,1.005046 1.43705,-0.05312 2.96168,-0.0075 4.57389,0.136812 5.60845,0.552634 10.7423,2.176565 15.40154,4.871798 4.65925,2.69523 7.47768,5.68106 8.45529,8.95748 0.97069,3.25321 -0.18372,5.84429 -3.46321,7.77325 -3.27949,1.92896 -7.71999,2.62874 -13.32151,2.09934 -5.60845,-0.55262 -10.7423,-2.17655 -15.40154,-4.87178 -4.65925,-2.69523 -7.47768,-5.68106 -8.4553,-8.9575 -0.27733,-0.92948 -0.37645,-1.81356 -0.29736,-2.65222 0,0 0,0 0,0"
       inkscape:connector-curvature="0" />
  </g>
</svg>
