<?xml version="1.0" encoding="UTF-8" standalone="no"?>
<svg
   xmlns:dc="http://purl.org/dc/elements/1.1/"
   xmlns:cc="http://creativecommons.org/ns#"
   xmlns:rdf="http://www.w3.org/1999/02/22-rdf-syntax-ns#"
   xmlns:svg="http://www.w3.org/2000/svg"
   xmlns="http://www.w3.org/2000/svg"
   xmlns:sodipodi="http://sodipodi.sourceforge.net/DTD/sodipodi-0.dtd"
   xmlns:inkscape="http://www.inkscape.org/namespaces/inkscape"
   id="Layer_1"
   data-name="Layer 1"
   viewBox="0 0 864 432"
   version="1.1"
   inkscape:version="0.91 r13725"
   sodipodi:docname="wsucon-numerals-year.svg"
   height="100%"
   width="864">
  <sodipodi:namedview
     pagecolor="#ffffff"
     bordercolor="#666666"
     borderopacity="1"
     objecttolerance="10"
     gridtolerance="10"
     guidetolerance="10"
     inkscape:pageopacity="0"
     inkscape:pageshadow="2"
     inkscape:window-width="1867"
     inkscape:window-height="1031"
     id="namedview3488"
     showgrid="false"
     showguides="false"
     inkscape:snap-grids="true"
     inkscape:snap-bbox="true"
     inkscape:bbox-nodes="true"
     inkscape:snap-intersection-paths="true"
     inkscape:zoom="1"
     inkscape:cx="493.67847"
     inkscape:cy="343.34006"
     inkscape:window-x="53"
     inkscape:window-y="27"
     inkscape:window-maximized="1"
     inkscape:current-layer="Layer_1"
     inkscape:object-paths="true"
     inkscape:snap-bbox-midpoints="true"
     inkscape:snap-bbox-edge-midpoints="true"
     inkscape:bbox-paths="true"
     inkscape:object-nodes="true"
     inkscape:snap-smooth-nodes="true"
     inkscape:snap-object-midpoints="true"
     inkscape:snap-center="true">
    <inkscape:grid
       type="xygrid"
       id="grid3492" />
  </sodipodi:namedview>
  <metadata
     id="metadata3490">
    <rdf:RDF>
      <cc:Work
         rdf:about="">
        <dc:format>image/svg+xml</dc:format>
        <dc:type
           rdf:resource="http://purl.org/dc/dcmitype/StillImage" />
        <dc:title>WSUCon-Final</dc:title>
      </cc:Work>
    </rdf:RDF>
  </metadata>
  <defs
     id="defs3434">
    <style
       id="style3436">.cls-1{fill:#c3002f;}.cls-2{fill:#9d162e;}.cls-3{fill:#fff;}</style>
  </defs>
  <title
     id="title3438">WSUCon-Final</title>
  <path
     class="cls-2"
     d="m 387.37,362.7 -91.15,53.16"
     id="path3448"
     inkscape:connector-curvature="0"
     style="fill:#9d162e" />
  <polygon
     class="cls-1"
     points="157.29,199.54 157.19,165.23 282.56,239.03 282.65,273.25 282.65,273.25 "
     id="polygon3450"
     style="fill:#c3002f" />
  <polygon
     class="cls-1"
     points="50.49,280.41 12.51,258.54 12.41,177.67 40.41,193.79 40.5,243.18 77.64,264.76 77.64,264.76 "
     id="polygon3452"
     style="fill:#c3002f" />
  <polygon
     class="cls-1"
     points="353.72,293.7 291.42,257.6 291.23,178.52 317.05,193.31 317.15,241.01 353.72,262.22 353.72,262.22 "
     id="polygon3454"
     style="fill:#c3002f" />
  <polygon
     class="cls-1"
     points="432.61,257.79 432.42,180.59 458.25,195.48 458.35,241.2 494.63,262.22 494.73,293.7 494.73,293.7 "
     id="polygon3456"
     style="fill:#c3002f" />
  <polygon
     class="cls-1"
     points="636.49,293.61 574.28,257.6 574.19,180.97 599.92,195.95 600.01,240.91 636.49,262.12 636.49,262.12 "
     id="polygon3458"
     style="fill:#c3002f" />
  <polygon
     class="cls-1"
     points="716.23,257.79 716.14,181.16 741.21,195.67 741.4,272.4 741.4,272.4 "
     id="polygon3460"
     style="fill:#c3002f" />
  <polygon
     class="cls-2"
     points="823.68,272.02 823.59,195.29 851.49,179.27 851.59,255.9 851.59,255.9 "
     id="polygon3462"
     style="fill:#9d162e" />
  <polygon
     class="cls-2"
     points="645.35,293.98 645.26,262.5 682.3,240.82 682.21,195.67 707.37,181.16 707.47,257.79 707.47,257.79 "
     id="polygon3464"
     style="fill:#9d162e" />
  <polygon
     class="cls-2"
     points="565.51,258.16 503.49,294.26 503.4,262.78 541.76,240.35 565.51,254.96 565.51,254.96 "
     id="polygon3466"
     style="fill:#9d162e" />
  <polygon
     class="cls-2"
     points="362.49,293.98 362.49,262.5 399.43,240.82 399.34,193.13 423.66,179.08 423.75,258.26 423.75,258.26 "
     id="polygon3468"
     style="fill:#9d162e" />
  <polygon
     class="cls-2"
     points="113.18,280.31 85.84,264.76 122.79,243.08 122.7,193.6 148.43,178.71 148.62,259.67 148.62,259.67 "
     id="polygon3470"
     style="fill:#9d162e" />
  <polygon
     class="cls-3"
     points="821.61,187.19 783.06,164.66 743.94,187.47 716.23,171.26 782.78,132.8 849.42,171.07 849.42,171.07 "
     id="polygon3472"
     style="fill:#ffffff" />
  <polygon
     class="cls-3"
     points="679.47,187.47 641.01,164.85 601.9,187.66 574.09,171.54 640.64,132.99 707.28,171.26 707.28,171.26 "
     id="polygon3474"
     style="fill:#ffffff" />
  <polygon
     class="cls-3"
     points="565.33,174.09 539.69,188.98 498.97,165.13 460.32,187.56 432.42,171.45 498.59,133.18 565.33,171.54 565.33,171.54 "
     id="polygon3476"
     style="fill:#ffffff" />
  <path
     class="cls-3"
     d="m 465.13,317 -50.8,29.88"
     id="path3478"
     inkscape:connector-curvature="0"
     style="fill:#ffffff" />
  <polygon
     class="cls-3"
     points="81.69,257.79 51.25,240.07 81.6,222.44 112.04,239.78 112.04,239.78 "
     id="polygon3480"
     style="fill:#ffffff" />
  <polygon
     class="cls-3"
     points="220.25,300.58 157.38,264.2 157.38,258.64 180,246 220.25,269.57 240.23,257.79 267.29,273.72 267.29,273.72 "
     id="polygon3482"
     style="fill:#ffffff" />
  <polygon
     class="cls-3"
     points="248.62,183.04 220.16,166.36 197.63,179.55 170.96,163.91 219.97,135.35 275.58,166.92 275.58,166.92 "
     id="polygon3484"
     style="fill:#ffffff" />
  <path
     id="path3520"
     style="font-style:normal;font-variant:normal;font-weight:600;font-stretch:normal;font-size:40px;line-height:125%;font-family:'URW Gothic L';-inkscape-font-specification:'URW Gothic L, Semi-Bold';text-align:start;letter-spacing:0px;word-spacing:0px;writing-mode:lr-tb;text-anchor:start;fill:#000000;fill-opacity:1;stroke:none;stroke-width:1px;stroke-linecap:butt;stroke-linejoin:miter;stroke-opacity:1"
     d="M546.516687467 79.054653418C546.516687467 79.054653418 564.33085 68.665176 564.33085 68.665176C564.33085 68.665176 461.67795 9.8643913 461.67795 9.8643913C461.67795 9.8643913 443.863787467 20.2538682581 443.863787467 20.2538682581C443.863787467 20.2538682581 546.516687467 79.054653418 546.516687467 79.054653418C546.516687467 79.054653418 546.516687467 79.054653418 546.516687467 79.054653418M485.24393166 114.78981142C485.24393166 114.78981142 499.807335005 106.296223809 499.807335005 106.296223809C499.807335005 106.296223809 434.343125272 25.8064559993 434.343125272 25.8064559993C434.343125272 25.8064559993 415.618749828 36.7267822771 415.618749828 36.7267822771C415.618749828 36.7267822771 467.808922514 96.5353139364 467.808922514 96.5353139364C467.808922514 96.5353139364 363.866655794 66.909351202 363.866655794 66.909351202C363.866655794 66.909351202 345.142279777 77.8296778146 345.142279777 77.8296778146C345.142279777 77.8296778146 485.24393166 114.78981142 485.24393166 114.78981142C485.24393166 114.78981142 485.24393166 114.78981142 485.24393166 114.78981142M359.02505 188.40249C359.02505 188.40249 380.220010718 176.04128215 380.220010718 176.04128215C380.220010718 176.04128215 367.163749578 142.707712274 367.163749578 142.707712274C367.163749578 142.707712274 425.600617554 149.574655438 425.600617554 149.574655438C425.600617554 149.574655438 446.275449598 137.516794158 446.275449598 137.516794158C446.275449598 137.516794158 361.869599834 127.649677567 361.869599834 127.649677567C361.869599834 127.649677567 343.622549598 78.7160064108 343.622549598 78.7160064108C343.622549598 78.7160064108 322.947717554 90.7738671568 322.947717554 90.7738671568C322.947717554 90.7738671568 335.770587509 124.725339687 335.770587509 124.725339687C335.770587509 124.725339687 277.567110718 117.240492697 277.567110718 117.240492697C277.567110718 117.240492697 256.37215 129.6017 256.37215 129.6017C256.37215 129.6017 340.934706705 139.859209966 340.934706705 139.859209966C340.934706705 139.859209966 359.02505 188.40249 359.02505 188.40249C359.02505 188.40249 359.02505 188.40249 359.02505 188.40249"
     inkscape:connector-curvature="0" />
  <path
     style="fill:none;fill-rule:evenodd;stroke:none;stroke-width:1px;stroke-linecap:butt;stroke-linejoin:miter;stroke-opacity:1"
     d="M 359.02505,188.40249 256.37215,129.6017 461.67795,9.8643913 564.33085,68.665176 359.02505,188.40249 Z"
     id="path4122"
     inkscape:connector-curvature="0" />
  <path
     style="fill:none;fill-rule:evenodd;stroke:none;stroke-width:0.49395946px;stroke-linecap:butt;stroke-linejoin:miter;stroke-opacity:1"
     d="m 573.72702,156.26905 -50.70637,-29.04521 101.41274,-59.14537 50.70637,29.0452 -101.41274,59.14538 z"
     id="path4122-9"
     inkscape:connector-curvature="0" />
  <flowRoot
     style="fill:black;stroke:none;stroke-opacity:1;stroke-width:1px;stroke-linejoin:miter;stroke-linecap:butt;fill-opacity:1;font-family:sans-serif;font-style:normal;font-weight:normal;font-size:40px;line-height:125%;letter-spacing:0px;word-spacing:0px"
     id="flowRoot4201"
     xml:space="preserve"><flowRegion
       id="flowRegion4203"><rect
         y="41"
         x="42"
         height="54"
         width="171"
         id="rect4205" /></flowRegion><flowPara
       id="flowPara4207" /></flowRoot>  <flowRoot
     xml:space="preserve"
     id="flowRoot4296"
     style="font-style:normal;font-weight:normal;font-size:40px;line-height:125%;font-family:sans-serif;letter-spacing:0px;word-spacing:0px;fill:#000000;fill-opacity:1;stroke:none;stroke-width:1px;stroke-linecap:butt;stroke-linejoin:miter;stroke-opacity:1"><flowRegion
       id="flowRegion4298"><rect
         id="rect4300"
         width="151"
         height="83"
         x="60"
         y="22" /></flowRegion><flowPara
       id="flowPara4302" /></flowRoot>  <flowRoot
     xml:space="preserve"
     id="flowRoot4323"
     style="fill:black;stroke:none;stroke-opacity:1;stroke-width:1px;stroke-linejoin:miter;stroke-linecap:butt;fill-opacity:1;font-family:sans-serif;font-style:normal;font-weight:normal;font-size:40px;line-height:125%;letter-spacing:0px;word-spacing:0px"><flowRegion
       id="flowRegion4325"><rect
         id="rect4327"
         width="282.07446"
         height="98.420876"
         x="28"
         y="23" /></flowRegion><flowPara
       id="flowPara4329" /></flowRoot>  <flowRoot
     style="fill:black;stroke:none;stroke-opacity:1;stroke-width:1px;stroke-linejoin:miter;stroke-linecap:butt;fill-opacity:1;font-family:sans-serif;font-style:normal;font-weight:normal;font-size:40px;line-height:125%;letter-spacing:0px;word-spacing:0px"
     id="flowRoot4467"
     xml:space="preserve"><flowRegion
       id="flowRegion4469"><rect
         y="35"
         x="43"
         height="71"
         width="206"
         id="rect4471" /></flowRegion><flowPara
       id="flowPara4473" /></flowRoot>  <g
     id="flowRoot4475"
     style="font-style:normal;font-variant:normal;font-weight:normal;font-stretch:normal;font-size:40px;line-height:125%;font-family:Carlito;-inkscape-font-specification:'Carlito, Normal';text-align:start;letter-spacing:0px;word-spacing:0px;writing-mode:lr-tb;text-anchor:start;fill:#000000;fill-opacity:1;stroke:none;stroke-width:1px;stroke-linecap:butt;stroke-linejoin:miter;stroke-opacity:1">
    <path
       id="path4484"
       style=""
       d="M573.189116005 155.960932213C573.189116005 155.960932213 573.189116005 155.960932213 573.189116005 155.960932213C573.189116005 155.960932213 573.189116005 155.960932213 573.189116005 155.960932213M536.909255568 122.025681988C538.317765286 121.204218835 539.923290504 120.613314617 541.725831222 120.252969331C543.528371936 119.892624046 545.432672827 119.776937136 547.438733898 119.9059086C549.44479497 120.034880064 551.506722351 120.421456888 553.624516046 121.065639072C555.759280404 121.699923727 557.866608833 122.612759555 559.946501339 123.804146559C561.691700198 124.803817087 563.130693782 125.843885338 564.263482089 126.92435131C565.389335768 127.981226525 566.319661907 129.083043419 567.054460508 130.229801995C567.806228899 131.366663553 568.432270756 132.549214094 568.932586075 133.777453618C569.408994882 134.991999215 569.854931001 136.238134508 570.270394434 137.515859497C570.270394434 137.515859497 574.279000178 149.728819575 574.279000178 149.728819575C574.660885431 149.202092119 575.102537765 148.70960046 575.603957182 148.251344598C576.12234603 147.783190504 576.678515643 147.375913225 577.272466021 147.029512761C577.272466021 147.029512761 587.88720338 140.838844196 587.88720338 140.838844196C588.345393705 140.571620962 588.901503485 140.468385016 589.555532722 140.529136358C590.185655442 140.576193763 590.811505813 140.777746084 591.433083836 141.13379332C591.433083836 141.13379332 595.054967164 143.208450883 595.054967164 143.208450883C595.054967164 143.208450883 573.189116005 155.960932213 573.189116005 155.960932213C573.189116005 155.960932213 571.145083034 154.79008589 571.145083034 154.79008589C570.738666114 154.557285459 570.367738416 154.276151344 570.03229994 153.946683545C569.672952853 153.603521615 569.446270092 153.238261766 569.352251655 152.850903997C569.352251655 152.850903997 564.651140226 138.181402907 564.651140226 138.181402907C564.266517966 136.940962614 563.836375266 135.782345048 563.360712127 134.705550205C562.902017909 133.618858851 562.333018774 132.596498926 561.653714724 131.638470429C560.950503807 130.666746795 560.125034283 129.752507873 559.177306152 128.895753663C558.22957925 128.039000159 557.074370938 127.220341014 555.711681217 126.439776228C554.348992726 125.659212146 553.000921426 125.063581149 551.667467315 124.652883232C550.350985088 124.232288487 549.103498205 123.978730974 547.925006667 123.892210693C546.722608259 123.79199527 545.606176637 123.848920501 544.575711801 124.062986387C543.545244871 124.277052079 542.622731299 124.621616553 541.808171083 125.09667981C541.010581521 125.561845537 540.451687954 126.095077337 540.131490381 126.69637521C539.787386293 127.283979151 539.663087428 127.909210284 539.758593786 128.572068612C539.830193629 129.221233007 540.109646487 129.901177726 540.596952361 130.611902769C541.060350853 131.308934387 541.709243837 131.994512318 542.543631313 132.668636563C543.220702575 133.213413176 543.521025827 133.660090695 543.444601067 134.008669118C543.361238355 134.333655881 542.962817353 134.635115696 542.249338058 134.913048561C542.249338058 134.913048561 539.532709749 135.917051265 539.532709749 135.917051265C537.560828796 134.552121214 536.055563253 133.219060742 535.016913116 131.917869849C533.971325905 130.593086798 533.353396681 129.336712128 533.163125441 128.148745836C532.972856295 126.960779747 533.19327516 125.851118456 533.824382034 124.81976196C534.472458691 123.778508446 535.500752318 122.847149858 536.909262912 122.025686195C536.909262912 122.025686195 536.909255568 122.025681988 536.909255568 122.025681988" />
    <path
       id="path4486"
       style=""
       d="M598.833468064 113.76859524C602.945441463 116.123981968 606.214050909 118.349399725 608.639296384 120.444848505C611.040636595 122.526604077 612.698884841 124.447547834 613.614041106 126.20767977C614.505290508 127.954116581 614.711294613 129.5336418 614.232053411 130.946255423C613.745876342 132.33527759 612.671257446 133.514749237 611.008196721 134.484670359C609.345136854 135.45459098 607.314245414 136.086297971 604.915522404 136.379791327C602.492892004 136.659591256 599.76684256 136.549792954 596.73737408 136.050396423C593.700966786 135.527408738 590.371172918 134.581334492 586.747992489 133.212173693C583.100906797 131.829319671 579.221377242 129.960199193 575.109403843 127.604812275C570.997430501 125.249425389 567.740773865 123.030854161 565.339433916 120.949098584C562.914187481 118.853649098 561.235502005 116.930807301 560.303377472 115.180573187C559.388220641 113.420441872 559.173731296 111.845864964 559.659909425 110.456842456C560.122180167 109.054126534 561.184845473 107.867808342 562.847905339 106.897887877C564.510966065 105.927966911 566.553811094 105.303106744 568.976440431 105.023307372C571.392133905 104.719916537 574.12666859 104.824766656 577.180044497 105.33785773C580.233420059 105.850947596 583.583651159 106.798919786 587.230737811 108.181774307C590.853917977 109.550934905 594.721494721 111.413208544 598.833468064 113.76859524C598.833468064 113.76859524 598.833468064 113.76859524 598.833468064 113.76859524M594.404298071 116.351751175C590.818274192 114.297634488 587.614327908 112.697789556 584.792459201 111.552216368C581.946682773 110.392948554 579.434798045 109.591689234 577.256805006 109.148438404C575.095781403 108.695289344 573.24282302 108.546119033 571.697929851 108.70092747C570.153035458 108.855735206 568.888457958 109.220156559 567.90419735 109.79419153C566.919937607 110.368225997 566.300844989 111.102388206 566.046919497 111.99667816C565.809962566 112.881070393 566.084710451 113.950675835 566.871163157 115.205494489C567.6745853 116.45041492 569.091904508 117.890040687 571.123120791 119.524371794C573.130429353 121.145008281 575.927095565 122.982384917 579.513119443 125.036501709C583.099142141 127.090617824 586.315041796 128.697309857 589.160818391 129.856577796C591.982687264 131.002151107 594.47413298 131.801511975 596.635155532 132.254660396C598.813149968 132.697911987 600.66610954 132.847082417 602.194034243 132.702171685C603.715020989 132.533669292 604.967644235 132.162400825 605.951903977 131.588366286C606.936164585 131.014331242 607.567211458 130.287016012 607.845044597 129.406420598C608.098969994 128.512130554 607.82422092 127.442524923 607.02079738 126.19760371C606.234345725 124.942785676 604.837465529 123.505058402 602.830156801 121.884421891C600.798940351 120.250090761 597.990320769 118.405867187 594.404298071 116.351751175C594.404298071 116.351751175 594.404298071 116.351751175 594.404298071 116.351751175" />
    <path
       id="path4488"
       style=""
       d="M625.694583041 120.032695029C625.694583041 120.032695029 632.643798408 115.979811963 632.643798408 115.979811963C632.643798408 115.979811963 600.835771054 97.7598006843 600.835771054 97.7598006843C599.903404735 97.225730317 598.96063202 96.6562742789 598.007452909 96.0514325704C598.007452909 96.0514325704 599.359592386 103.388097007 599.359592386 103.388097007C599.430448767 103.899510766 599.199001058 104.227952435 598.665249258 104.373422014C598.12456282 104.49530083 597.622459469 104.511765639 597.158939207 104.422816438C597.158939207 104.422816438 593.192027925 103.710135109 593.192027925 103.710135109C593.192027925 103.710135109 590.784675557 91.0607685477 590.784675557 91.0607685477C590.784675557 91.0607685477 594.246555832 89.0417501111 594.246555832 89.0417501111C594.246555832 89.0417501111 636.920233541 113.485733047 636.920233541 113.485733047C636.920233541 113.485733047 643.28398329 109.774302011 643.28398329 109.774302011C643.28398329 109.774302011 647.874093428 112.403570859 647.874093428 112.403570859C647.874093428 112.403570859 630.284687965 122.661967075 630.284687965 122.661967075C630.284687965 122.661967075 625.694577828 120.032698069 625.694577828 120.032698069C625.694577828 120.032698069 625.694583041 120.032695029 625.694583041 120.032695029" />
    <path
       id="path4490"
       style=""
       d="M664.015920323 103.611254546C662.369831405 104.571277464 660.536760204 105.267252639 658.516706724 105.699180068C656.489715635 106.107517048 654.374462663 106.249504946 652.170947812 106.125143761C649.960504048 105.97718706 647.711163259 105.56172825 645.422925448 104.878767336C643.134687647 104.195806424 640.914761411 103.238090934 638.763146747 102.005620872C635.559633131 100.17061078 633.464438234 98.3524984065 632.477562037 96.5512837516C631.507655989 94.7401733007 631.627549115 92.9843986737 632.8372414 91.2839598686C630.150035016 91.7457010149 627.396982904 91.6792871393 624.578085079 91.0847182423C621.776166091 90.4802484655 619.036424619 89.4111435929 616.358860673 87.8774036332C614.541942296 86.8366515256 613.082136174 85.7258113138 611.979442305 84.5448829993C610.869818308 83.3403584779 610.162022753 82.1502143607 609.856055636 80.9744506473C609.543158387 79.7750907275 609.662934295 78.6273959385 610.215383357 77.5313662792C610.78480133 76.425440112 611.81619032 75.4370025024 613.309550323 74.5660534486C614.802910319 73.6951043992 616.495205786 73.0950500173 618.386436727 72.7658903001C620.294636578 72.4268340688 622.279140669 72.3472824369 624.339949005 72.5272354042C626.393827207 72.6835921582 628.459222761 73.0819643497 630.536135672 73.7223519805C632.606118455 74.3391434001 634.549569033 75.1679151268 636.366487411 76.2086671637C639.044051356 77.7424070192 640.90984163 79.3212127537 641.963858222 80.9450843685C643.017867359 82.5689617672 643.157537298 84.1595378248 642.382868027 85.7168125404C645.330829 84.992447889 648.367358045 84.9073514605 651.492455179 85.4615232541C654.634522461 86.0057992351 657.807312901 87.1954421958 661.010826517 89.0304521496C663.162441181 90.2629221186 664.839327417 91.5373463127 666.041485218 92.8537247327C667.243643029 94.1701031628 667.974166104 95.4713584077 668.233054438 96.7574904669C668.485013859 98.0200270199 668.25840466 99.2438470535 667.553226835 100.428950567C666.841111402 101.590463639 665.662009232 102.651231633 664.015920323 103.611254546C664.015920323 103.611254546 664.015920323 103.611254546 664.015920323 103.611254546M659.031347131 100.75603279C660.049542785 100.162206336 660.730321175 99.5026156626 661.073682304 98.7772607715C661.434012345 98.0420093673 661.487766127 97.2782813619 661.234943653 96.4860767557C660.982128644 95.6938663847 660.43815571 94.8918244877 659.603024852 94.0799510649C658.743986257 93.254383013 657.633122051 92.4513166729 656.270432235 91.6707520444C654.573048745 90.6984709736 652.948499511 89.9738986093 651.396784527 89.4970349481C649.862048374 89.0102704063 648.415193434 88.7209841205 647.056219705 88.6291760897C645.714223578 88.527466476 644.465128659 88.6064891017 643.308934944 88.866243967C642.169710142 89.116102317 641.158879914 89.4983561037 640.27644426 90.0130053278C639.377031001 90.5375561367 638.707830143 91.1351207559 638.268841687 91.8056991863C637.846830832 92.466376036 637.721356838 93.1890218736 637.892419706 93.9736366998C638.080460178 94.7483499462 638.593964032 95.5819800985 639.43293127 96.4745271576C640.288877341 97.357173339 641.565542119 98.2846369862 643.262925608 99.2569180998C644.625615424 100.037482763 646.024968544 100.672298225 647.460984967 101.161364484C648.873093652 101.636736111 650.265568759 101.943919278 651.638410284 102.082913982C653.011250585 102.221907986 654.32358126 102.188915761 655.575402305 101.983937307C656.844192262 101.769062337 657.996173871 101.359760831 659.031347131 100.75603279C659.031347131 100.75603279 659.031347131 100.75603279 659.031347131 100.75603279M635.256011693 87.1372429037C636.274207347 86.5434164961 636.900610213 85.9017201985 637.135220294 85.2121540114C637.362884083 84.4990024478 637.290908619 83.7809643811 636.919293902 83.0580398114C636.547689099 82.3351108785 635.937754458 81.6129944504 635.08948998 80.8916905271C634.217327678 80.1566876087 633.219436084 79.4673745705 632.095815196 78.823751412C630.948287798 78.1664343253 629.753689477 77.6194800564 628.512020231 77.1828886042C627.270352212 76.7462978543 626.04138451 76.4543025631 624.825117123 76.3069027301C623.601903448 76.135917519 622.418766625 76.1350176198 621.275706651 76.3042030325C620.125707853 76.4497972988 619.084032912 76.7947663306 618.150681827 77.3391101292C617.21733074 77.8834539295 616.621401224 78.4935594103 616.362893281 79.1694265721C616.097446513 79.8217025895 616.109650079 80.5055076449 616.399503979 81.2208417386C616.682428969 81.9125803216 617.2071433 82.6153063457 617.973646975 83.3290198109C618.740151876 84.0427339802 619.697168026 84.728249621 620.844695424 85.3855667328C621.968316312 86.0291899158 623.16985225 86.5997346585 624.44930324 87.0972009602C625.70483903 87.5809783992 626.959635843 87.9270019199 628.213693678 88.1352715216C629.467744051 88.343546892 630.702159628 88.3836331128 631.916940407 88.2555301838C633.124783585 88.1038368079 634.237807347 87.7310743807 635.256011693 87.1372429037C635.256011693 87.1372429037 635.256011693 87.1372429037 635.256011693 87.1372429037" />
  </g>
</svg>
